P2
50 50
255
7 9 10 12 12 14 21 27 33 40 45 49 55 62 71 80 83 83 82 83 84 82 84 90 89 98 103 107 114 119 119 117 109 102 95 87 73 61 55 52 46 46 47 46 46 47 48 50 46 45 
8 9 10 11 11 13 19 25 31 38 44 49 56 63 72 81 85 86 85 86 87 84 86 92 94 110 117 118 120 120 119 116 111 102 92 82 71 63 55 46 42 42 42 42 43 44 46 48 47 45 
9 9 10 11 11 12 17 22 28 36 42 49 57 65 75 84 90 91 90 90 90 87 89 95 108 140 155 149 137 126 122 118 111 104 93 80 68 61 51 40 39 39 39 39 41 43 45 46 46 44 
9 9 10 11 11 12 15 19 25 32 40 49 58 67 77 88 94 95 94 93 92 89 90 96 122 164 181 175 162 145 133 120 111 105 96 83 67 56 47 40 38 38 38 40 42 44 45 45 44 44 
9 9 10 11 12 12 14 16 21 29 37 47 58 67 79 91 96 98 97 95 93 90 91 95 126 164 173 176 180 172 154 129 114 103 93 84 69 55 46 41 36 37 39 42 44 45 45 45 45 45 
9 9 10 11 12 11 12 14 17 24 33 44 56 66 78 92 97 100 99 96 94 91 91 96 124 162 166 169 183 184 177 156 128 107 89 80 69 56 46 39 34 37 40 43 45 46 47 47 47 47 
10 9 9 11 11 10 10 10 13 19 28 39 52 63 76 90 96 100 100 97 94 92 93 98 119 161 164 162 172 177 186 180 156 129 101 82 69 57 47 39 36 39 43 45 47 49 51 54 52 52 
10 9 9 11 11 9 8 8 10 16 25 36 49 60 74 89 95 99 100 97 95 94 95 100 111 154 154 151 160 168 184 184 183 157 122 92 70 59 51 43 38 42 46 48 49 52 57 61 59 57 
11 10 10 9 9 8 7 7 6 10 19 32 47 58 71 86 92 98 99 96 97 94 96 104 114 146 152 151 159 165 177 183 184 182 162 119 80 63 56 47 45 44 51 58 55 53 63 78 76 60 
10 10 9 9 8 7 6 6 4 8 14 26 40 52 67 83 92 98 99 97 98 97 100 110 119 147 162 167 171 172 178 185 185 187 182 156 114 78 59 52 48 53 59 65 67 64 77 103 93 72 
10 10 9 8 7 6 5 4 4 6 10 20 34 47 64 81 90 98 99 99 99 99 105 118 125 148 169 170 170 174 175 180 187 187 190 183 155 116 81 59 57 67 73 78 79 74 92 132 119 92 
10 9 8 7 6 4 4 3 3 4 7 17 30 44 62 80 87 95 98 99 100 99 106 121 137 154 171 164 164 178 179 179 188 188 190 189 181 160 121 84 73 87 104 114 107 98 118 156 147 122 
10 9 8 7 5 4 3 2 0 2 5 14 27 40 58 76 84 93 97 99 100 99 106 121 151 161 174 170 173 186 189 191 190 194 196 193 190 183 159 129 104 119 150 166 150 137 153 175 178 164 
10 10 9 7 6 4 3 3 1 3 6 14 26 38 55 73 84 92 97 100 102 101 108 123 153 165 179 182 185 189 191 198 196 196 197 196 193 190 179 164 149 156 182 194 176 167 179 187 191 187 
11 10 9 8 6 5 4 3 3 5 7 14 24 35 52 70 80 87 92 96 100 101 109 125 149 178 191 189 187 184 187 193 199 197 198 199 198 197 192 185 187 187 195 197 188 188 194 196 188 189 
11 11 10 8 7 5 4 4 4 5 6 12 21 31 48 66 74 80 84 89 94 96 105 122 153 199 209 193 183 183 189 189 197 201 205 204 201 205 206 202 203 203 201 199 204 207 206 204 195 198 
11 11 11 10 8 7 7 7 6 6 7 11 17 28 44 58 66 72 77 80 91 97 100 117 169 206 197 187 184 178 194 196 207 211 213 213 213 214 214 211 210 209 199 205 220 222 212 199 194 209 
11 12 12 11 9 8 8 9 7 7 8 12 16 24 38 51 56 63 72 78 85 88 99 127 177 201 191 186 189 185 198 206 209 214 218 219 219 220 217 213 214 212 200 210 230 227 206 189 193 206 
12 13 13 12 11 11 11 11 9 8 9 12 15 20 31 41 49 56 66 72 76 80 101 142 185 193 186 187 196 194 199 210 212 217 223 225 225 224 219 213 217 219 209 218 237 225 197 181 190 202 
13 13 14 13 13 13 13 14 11 10 10 12 14 17 25 33 46 50 57 61 68 77 105 149 170 174 175 182 195 196 194 204 215 219 224 226 227 226 220 214 219 228 221 225 234 214 188 181 185 200 
13 13 14 14 14 14 15 15 14 11 10 11 12 15 21 28 38 41 45 49 61 78 104 141 153 160 172 182 199 207 203 210 218 221 223 225 227 228 224 219 222 234 225 222 224 202 182 183 181 200 
13 14 14 15 15 15 16 16 15 12 11 12 12 12 17 22 25 30 34 39 57 76 97 126 147 161 178 191 209 220 220 223 221 223 224 224 227 230 227 223 224 230 217 211 211 195 180 180 179 197 
13 14 15 15 15 15 16 17 16 13 12 12 11 10 11 14 14 20 26 32 48 66 85 113 137 157 177 195 213 223 225 225 225 226 225 225 227 228 224 218 220 221 207 199 200 190 179 175 178 189 
14 14 15 16 16 16 17 18 16 14 13 13 11 8 7 8 8 14 20 24 37 52 73 105 128 151 174 199 218 226 230 228 228 228 227 225 225 224 218 210 212 214 201 194 193 186 178 172 178 182 
14 15 16 17 17 17 17 18 15 14 13 11 9 8 7 6 8 8 11 22 35 50 71 92 112 139 170 203 224 228 229 228 225 227 228 223 221 219 207 203 203 206 196 187 184 179 171 172 169 172 
14 15 16 17 17 17 18 18 16 15 13 11 9 8 7 6 5 8 14 24 36 51 73 96 115 142 170 200 224 230 231 230 230 231 228 213 207 197 193 190 191 185 185 180 177 177 170 168 165 169 
14 15 16 17 17 17 18 19 16 15 14 12 10 8 7 6 7 7 11 22 36 52 75 99 123 156 183 208 229 231 228 225 228 221 210 207 184 177 172 167 178 177 184 173 164 171 173 168 161 165 
14 15 17 17 18 18 19 19 17 16 15 13 11 9 8 7 10 8 11 25 40 56 84 114 156 189 211 224 234 231 225 223 215 209 171 130 117 121 136 143 149 159 171 172 173 170 172 166 163 163 
15 16 17 18 18 18 19 20 18 18 16 14 12 10 9 9 10 12 18 28 40 63 109 156 204 226 232 233 235 230 225 219 200 174 107 70 54 47 61 114 135 150 153 170 189 171 171 169 169 167 
15 16 17 18 18 19 20 20 20 19 17 15 14 12 11 11 11 16 19 24 41 83 151 210 231 238 234 232 231 225 216 202 176 121 119 121 90 40 41 59 104 145 165 177 198 179 174 168 171 170 
15 16 18 18 19 19 20 21 21 20 19 17 15 14 13 13 15 19 21 34 76 140 200 236 234 234 231 230 224 217 207 188 157 114 196 147 81 17 90 98 62 128 193 206 213 190 174 166 172 172 
15 16 18 19 19 19 20 21 21 21 19 18 16 15 14 14 18 22 27 59 130 203 234 233 237 235 233 230 218 211 208 192 159 101 150 126 58 26 82 110 83 131 214 233 227 191 169 176 175 173 
15 16 17 18 18 19 20 21 21 21 20 19 18 17 18 19 19 26 35 94 182 228 235 235 238 235 230 224 221 221 212 198 168 109 101 120 61 33 93 109 85 156 225 244 223 195 178 175 174 171 
15 16 17 18 18 19 20 21 21 21 21 20 19 19 19 20 23 28 48 118 199 234 237 237 239 233 228 225 224 223 212 196 179 136 101 103 94 89 105 93 80 159 231 245 223 198 181 170 173 179 
15 16 17 18 18 19 20 21 21 21 22 21 21 20 21 21 25 30 65 145 216 237 238 239 239 231 226 227 229 226 212 195 185 176 152 133 119 104 100 97 97 173 237 240 216 195 179 167 171 178 
15 16 17 17 18 18 19 20 20 21 22 22 22 22 22 22 24 32 79 163 221 235 238 239 238 228 225 230 232 226 211 196 187 177 173 171 169 165 154 143 145 202 244 236 207 187 177 171 172 175 
15 16 17 17 17 18 19 20 19 20 21 22 22 22 22 23 25 39 94 176 223 234 240 238 235 228 227 233 233 225 211 200 187 183 187 182 174 175 170 164 191 223 242 228 197 175 169 173 176 176 
15 16 16 17 17 17 18 19 19 20 20 21 21 22 23 24 28 46 104 182 226 237 242 238 234 229 230 235 232 224 213 204 200 195 189 184 183 180 182 196 215 232 237 219 190 169 166 173 178 172 
15 15 16 17 17 17 18 19 19 20 20 20 21 21 23 24 28 45 100 178 224 237 242 239 234 231 232 235 232 225 216 209 204 204 196 191 190 187 199 222 224 238 234 207 180 168 169 175 174 168 
15 15 16 17 17 17 18 19 19 20 20 20 20 21 23 25 26 39 90 169 219 235 242 240 236 232 233 235 232 226 218 211 209 214 205 194 193 206 220 215 220 234 224 187 160 158 164 168 169 172 
13 13 15 16 17 18 18 18 19 19 20 20 21 22 23 25 26 33 87 167 218 236 240 240 239 235 235 231 228 227 220 218 215 223 215 203 206 212 214 219 219 234 193 155 142 147 153 151 161 162 
17 16 16 15 15 16 18 18 20 21 21 20 20 20 22 23 27 33 85 164 217 237 242 240 237 234 234 229 226 224 218 220 222 221 212 208 214 217 211 206 226 227 173 130 128 127 130 134 144 159 
19 18 17 17 17 17 17 18 18 18 19 20 22 24 27 29 29 38 85 153 205 231 240 239 239 233 227 219 216 216 217 227 233 226 219 218 220 217 204 189 188 193 151 129 123 126 120 122 134 137 
16 17 19 20 20 20 19 18 20 21 20 20 21 22 24 26 34 43 74 120 169 212 237 242 240 231 221 210 206 204 207 221 227 223 224 224 220 218 208 190 156 124 87 129 123 109 67 66 89 110 
13 15 17 20 21 22 22 21 18 19 19 19 19 20 23 24 29 32 40 67 122 189 230 241 238 230 219 208 201 193 191 205 232 230 234 230 221 219 211 192 168 133 90 129 123 105 60 67 106 141 
14 14 15 17 19 21 23 25 21 21 21 21 21 22 23 24 28 28 30 56 122 198 238 243 237 228 214 201 194 185 186 207 239 233 231 225 215 210 199 178 164 168 134 108 95 93 95 127 157 167 
14 14 14 15 17 19 21 23 28 28 28 27 25 24 23 23 24 28 37 71 140 207 236 235 237 228 211 194 186 180 190 221 230 219 215 214 207 197 183 166 163 160 140 103 77 78 112 154 163 164 
14 14 15 16 17 17 18 18 19 21 24 27 29 32 34 35 38 45 60 98 161 218 241 242 238 230 214 196 185 178 190 225 235 222 217 218 210 193 176 165 154 145 146 122 74 86 127 148 160 161 
14 14 15 16 17 17 18 18 17 19 19 18 21 22 22 24 28 38 55 97 164 218 239 242 241 230 215 197 180 177 198 224 229 226 212 204 199 188 173 158 147 138 132 116 92 95 117 129 146 156 
13 13 14 16 17 18 19 20 20 21 19 18 20 21 22 25 31 36 60 113 180 227 241 240 242 235 224 207 186 175 185 201 212 217 209 198 184 170 162 154 141 132 122 104 82 85 109 126 128 140 
