P2
102 76
255
8 8 10 11 12 15 19 26 32 38 44 49 55 63 71 78 83 84 84 84 84 84 86 89 95 101 108 113 116 118 118 115 109 101 93 83 72 63 55 49 45 44 44 44 44 45 47 47 46 44 43 42 40 38 35 33 31 32 35 40 47 54 60 66 73 78 81 82 83 83 83 83 82 78 75 72 70 75 86 101 113 121 124 127 129 128 123 114 105 96 87 77 67 58 51 45 39 34 28 22 17 10 
8 9 10 10 11 14 18 24 31 37 43 49 56 64 72 80 84 86 86 86 85 85 87 91 101 112 121 124 123 121 119 115 110 102 93 82 71 62 53 47 43 42 42 42 43 44 46 46 46 44 43 42 40 38 35 33 31 32 36 41 47 54 61 67 73 78 81 83 84 83 84 84 83 79 74 73 77 87 101 113 121 127 130 132 132 129 124 115 106 96 88 78 68 59 51 45 40 34 28 23 18 10 
8 9 10 10 11 13 17 22 28 35 42 49 57 65 74 82 88 90 90 89 88 88 89 96 113 132 145 146 139 131 124 117 110 102 93 81 70 59 51 44 40 39 39 40 42 43 45 45 45 44 43 42 41 39 36 33 32 33 37 42 48 55 62 69 74 79 82 84 85 85 86 85 83 80 81 89 100 110 117 121 124 128 133 136 135 130 124 116 107 98 89 79 69 60 52 46 41 35 29 23 18 10 
9 9 10 10 11 12 15 19 25 32 40 48 57 67 77 86 91 93 93 92 91 90 91 101 123 148 164 165 158 147 135 123 112 103 93 81 69 57 48 42 38 38 39 40 42 43 44 45 44 44 44 43 42 40 37 34 33 34 38 43 49 56 63 70 75 80 83 86 86 87 88 88 87 91 100 112 120 123 121 118 114 116 124 133 136 132 126 117 109 100 90 80 70 61 53 46 41 36 30 24 19 11 
9 9 10 10 11 12 13 17 21 28 37 46 56 67 78 88 94 96 96 94 92 91 92 103 127 153 170 173 171 165 152 135 119 105 93 81 68 56 47 40 37 37 39 41 43 44 45 45 45 45 45 45 43 41 39 37 36 37 40 45 50 57 64 70 76 81 85 87 88 88 90 92 100 114 128 133 129 120 112 106 101 101 109 123 133 133 128 119 111 101 92 81 71 61 53 47 42 36 30 24 19 11 
9 9 9 10 11 11 12 14 18 24 33 43 54 66 78 88 95 98 98 96 93 92 93 103 127 151 166 171 175 176 168 153 133 113 96 81 69 57 47 40 37 37 40 43 45 46 47 48 48 48 47 47 46 44 42 41 40 40 42 46 52 58 65 71 77 82 86 89 90 92 97 109 125 140 142 133 120 110 104 100 95 93 97 112 127 133 130 121 113 103 94 83 72 62 54 47 42 36 30 24 19 11 
9 9 9 10 10 10 10 11 14 20 29 40 51 63 76 87 95 98 98 96 94 93 94 103 125 146 160 164 169 176 177 170 153 130 106 86 70 58 48 41 38 39 42 45 47 49 51 52 52 52 51 49 48 48 47 46 45 44 45 48 54 60 66 72 78 83 88 90 92 99 113 133 148 149 138 124 113 105 100 96 92 87 90 103 122 133 132 123 115 105 95 84 74 63 55 48 42 37 31 25 20 11 
9 9 9 10 9 9 8 8 11 16 24 36 48 61 74 85 93 97 98 97 95 94 96 103 123 141 155 158 162 172 178 179 170 152 127 99 76 61 51 44 41 42 46 49 50 52 57 61 61 57 55 53 52 53 56 56 53 50 49 53 58 65 70 75 80 85 90 92 98 116 139 157 155 141 126 116 110 104 97 92 87 82 83 98 119 132 132 125 116 107 97 86 75 64 56 49 43 37 31 25 20 11 
10 9 9 9 9 8 7 6 8 12 20 32 44 57 71 83 92 96 98 97 96 96 98 105 122 139 153 158 162 170 177 182 181 171 151 121 92 70 56 48 45 47 51 55 56 59 67 74 73 66 60 59 58 61 68 70 64 57 55 64 72 79 79 80 84 89 93 98 114 139 161 162 147 128 119 114 109 102 96 90 85 79 79 94 117 134 135 127 118 108 98 87 76 65 57 50 44 38 32 25 20 11 
10 9 9 8 7 7 6 5 6 9 16 26 39 53 67 80 90 96 98 98 97 98 102 110 125 142 156 163 166 171 176 181 184 182 172 149 118 89 67 56 52 55 60 65 65 69 81 92 91 79 71 68 69 74 86 90 84 72 70 84 96 102 95 90 91 95 102 117 141 163 167 153 133 121 116 112 108 103 97 90 83 76 77 92 116 135 136 129 119 110 99 88 77 66 58 50 44 38 32 26 20 11 
9 9 8 7 6 5 5 4 4 6 12 22 34 48 64 78 89 95 98 98 98 100 106 115 131 148 161 167 170 173 177 181 185 187 183 171 148 118 90 70 64 69 77 82 82 86 101 115 115 101 91 89 91 98 112 117 111 98 97 116 131 133 119 108 105 109 123 146 167 172 159 141 126 118 113 110 107 104 99 92 83 74 75 92 117 136 138 131 121 111 101 89 77 67 58 51 45 39 32 26 21 12 
9 9 8 7 6 4 3 3 3 4 9 18 30 45 61 75 87 93 97 98 99 101 108 121 137 154 164 169 172 176 181 184 187 190 190 185 172 149 121 96 86 92 106 113 111 112 126 141 142 131 124 124 128 134 146 151 147 137 137 153 166 166 152 139 132 135 151 170 175 163 145 131 123 117 113 110 107 104 101 95 85 75 75 94 120 139 140 133 124 113 102 90 78 68 59 51 45 39 33 26 21 12 
9 9 8 7 5 4 3 2 2 3 8 16 27 42 58 73 84 91 96 99 99 102 109 125 142 160 168 173 176 181 186 189 191 192 193 191 186 172 152 129 118 124 141 149 145 142 152 164 167 163 161 164 168 172 178 179 175 168 168 177 184 184 176 166 158 160 167 171 162 145 134 127 124 119 115 110 106 103 101 97 90 80 79 97 122 142 143 136 126 115 104 92 79 68 59 52 46 40 33 27 22 12 
10 9 8 7 5 4 3 2 2 3 7 15 25 39 55 70 82 89 94 98 99 102 110 127 147 166 176 181 182 185 189 192 194 195 196 195 193 186 175 160 153 158 171 177 173 170 175 182 183 185 188 193 194 193 192 190 186 182 181 183 185 186 183 178 172 168 163 153 141 131 128 125 124 120 116 111 107 103 100 98 94 87 85 101 125 145 146 138 128 117 106 93 80 69 59 52 46 40 34 27 22 13 
10 10 9 7 6 4 3 3 3 4 8 14 23 36 52 66 78 85 90 94 97 101 110 127 151 175 187 188 186 186 189 193 196 198 199 199 198 195 191 185 181 184 190 192 191 189 192 193 192 196 202 206 204 197 191 185 182 179 178 177 176 176 175 174 168 160 149 136 128 124 124 122 121 119 116 113 110 106 101 98 96 91 91 107 130 148 149 141 130 118 107 94 81 69 60 52 46 41 34 28 22 13 
10 10 9 8 7 5 5 4 4 5 8 13 21 33 48 62 72 79 84 89 93 99 108 127 157 183 194 191 185 185 188 194 198 203 204 204 204 204 202 201 199 199 199 200 203 204 203 198 196 201 209 211 205 194 185 179 176 175 175 174 173 171 169 166 160 151 140 131 125 122 120 119 119 118 116 115 113 110 106 101 98 94 98 115 138 152 152 143 132 120 108 95 82 70 61 53 47 41 35 28 23 13 
11 11 10 9 8 7 6 6 6 6 8 12 19 29 43 55 65 71 77 83 88 95 105 129 163 189 196 191 185 187 190 198 203 208 210 211 212 212 211 210 208 205 204 207 213 214 208 199 198 204 212 212 205 193 184 178 176 175 174 173 172 170 168 165 158 150 141 133 125 119 116 114 114 113 112 113 114 114 112 106 100 95 102 122 145 156 154 145 134 121 109 96 83 71 61 54 47 41 35 29 23 13 
11 11 11 10 9 8 8 8 7 7 8 11 17 25 37 48 56 64 70 77 83 90 105 135 168 189 192 189 187 190 195 203 209 213 217 218 219 218 216 214 213 209 209 214 221 219 206 195 195 204 210 208 200 190 182 178 176 175 174 173 171 170 168 163 158 151 144 134 125 118 114 111 107 103 101 101 104 107 111 110 105 99 108 129 151 159 157 148 136 123 111 97 84 72 62 55 48 42 36 29 23 14 
12 12 12 12 11 10 10 10 9 8 9 12 15 22 31 41 49 57 63 70 76 86 107 139 168 183 186 187 190 194 198 205 211 216 220 222 223 221 218 216 216 215 215 220 224 217 200 190 191 200 205 202 193 185 179 178 177 176 174 172 171 169 166 161 156 151 144 135 126 118 113 104 97 90 88 87 89 94 101 107 106 106 117 137 155 161 159 150 138 125 112 99 85 73 63 56 49 43 36 30 24 14 
12 13 13 13 12 12 13 12 11 10 10 11 14 18 25 34 42 49 55 61 69 83 108 138 163 174 179 186 193 198 201 207 214 219 222 225 225 224 220 218 220 221 222 223 222 211 194 185 189 197 201 196 187 181 179 178 177 175 172 171 170 167 163 158 154 149 144 136 127 120 112 101 92 86 84 82 81 83 90 98 104 112 125 143 158 163 161 152 140 126 114 100 86 74 64 56 50 43 37 30 25 14 
13 13 13 14 14 14 14 14 13 11 11 11 13 16 21 28 34 40 45 52 62 80 105 132 153 165 175 187 197 204 208 212 217 220 223 225 226 226 223 221 223 224 223 221 215 203 189 182 187 195 198 192 184 180 179 179 176 173 170 169 168 165 160 155 151 148 143 136 129 123 114 104 97 93 91 87 83 83 86 92 99 111 127 145 159 165 163 154 142 128 116 102 87 75 65 57 51 44 38 31 25 15 
13 13 14 14 14 15 15 15 14 12 11 11 11 13 16 21 25 30 35 43 56 74 98 122 143 160 174 190 204 213 217 218 221 222 224 225 226 226 224 222 223 222 218 212 206 195 185 179 184 191 194 188 181 179 179 178 174 170 167 167 166 163 158 154 150 147 142 136 131 125 119 111 106 104 102 98 92 89 90 93 97 109 125 145 159 166 164 156 144 130 117 103 89 76 66 58 51 45 38 31 25 15 
13 14 14 15 15 15 16 16 15 13 12 11 11 11 12 14 17 21 26 35 47 65 88 112 136 156 175 194 210 220 224 225 225 225 225 225 226 225 222 219 219 216 210 203 197 190 181 177 181 186 187 184 179 178 178 176 172 168 166 166 164 161 157 154 151 147 142 137 132 127 122 118 115 113 111 107 101 97 97 100 101 111 126 146 159 166 165 157 145 132 119 105 90 77 66 58 52 45 39 32 26 15 
14 14 15 15 16 16 16 16 15 14 12 11 10 9 8 9 11 14 19 28 40 57 78 101 126 149 173 197 214 224 226 227 226 226 226 225 224 221 216 212 211 208 202 195 190 184 178 174 176 179 180 179 176 175 174 173 169 166 165 164 163 160 157 155 151 148 144 139 134 129 126 123 121 120 119 115 109 104 103 106 108 117 130 148 159 166 165 158 147 134 121 106 91 78 67 59 53 46 40 33 27 16 
14 14 15 16 16 16 17 17 16 14 13 11 9 8 7 6 7 10 16 24 36 53 73 96 120 144 172 198 216 226 228 228 228 228 225 221 217 212 206 203 201 199 194 188 184 179 174 171 171 173 174 173 172 172 171 168 166 163 163 162 161 160 158 156 153 150 146 142 137 133 130 129 128 128 126 122 116 110 109 112 115 123 134 149 159 165 165 158 148 135 122 107 92 79 68 60 53 47 41 34 27 16 
14 15 16 16 17 17 17 17 16 14 13 11 9 8 7 6 6 8 14 23 36 53 73 95 119 145 174 201 219 228 228 228 227 225 220 213 205 197 191 189 188 189 185 181 176 174 172 168 167 166 168 167 167 168 167 164 161 159 158 158 157 156 155 155 153 151 147 144 141 138 136 135 134 134 132 127 119 113 114 117 121 126 136 148 158 164 165 159 150 137 124 109 93 79 69 61 54 48 42 34 28 16 
14 15 16 16 17 17 18 17 16 15 13 12 10 8 7 7 7 9 14 24 38 55 77 103 132 160 187 209 223 229 228 226 223 215 202 185 172 167 166 168 171 175 176 175 173 171 170 167 165 163 162 161 162 162 161 158 156 153 153 151 149 148 149 150 152 150 148 146 143 141 139 139 139 138 136 130 122 116 118 122 125 130 138 149 158 164 165 160 150 138 125 110 94 80 69 61 55 49 42 35 29 17 
14 15 16 17 17 18 18 18 17 16 14 13 11 9 8 8 8 10 15 25 40 61 89 124 158 186 206 221 228 229 226 220 212 192 166 138 123 118 126 139 152 161 167 172 172 172 170 168 165 162 159 157 156 156 154 151 147 142 136 128 123 121 126 133 141 145 147 146 144 143 141 142 142 141 140 135 127 122 124 128 131 133 140 149 159 165 165 160 151 140 127 111 95 81 70 61 55 49 43 35 29 17 
15 15 16 17 18 18 19 19 18 17 15 14 12 10 9 9 10 12 17 27 44 74 114 157 191 213 224 229 230 228 221 211 193 165 135 108 87 78 84 104 128 147 162 174 177 177 171 169 167 164 160 156 154 152 148 141 130 115 102 91 88 89 95 104 116 130 139 143 144 144 144 145 145 146 145 141 135 131 132 135 137 137 141 149 158 165 166 160 151 141 128 112 96 81 70 62 55 49 43 36 29 17 
15 16 17 17 18 18 19 19 19 18 17 15 13 12 11 11 12 15 21 33 58 100 149 192 218 229 232 231 228 223 214 198 172 151 129 109 74 57 63 84 110 137 165 184 188 184 173 170 169 168 165 160 156 150 140 121 101 85 75 65 63 68 78 84 93 110 128 139 145 147 148 149 150 151 150 148 145 142 141 142 142 140 141 147 155 162 165 160 152 142 129 113 97 82 70 62 55 49 43 36 29 17 
15 16 17 18 18 19 19 20 20 19 18 16 15 13 13 13 15 18 26 47 87 139 187 218 232 234 233 229 224 217 207 189 156 143 132 120 78 58 62 81 102 136 176 202 201 190 176 171 171 171 169 166 162 152 129 100 78 71 71 61 60 69 85 86 85 98 121 139 148 151 153 153 155 156 156 154 152 150 149 148 146 144 143 144 150 157 161 160 153 143 130 114 97 82 70 62 55 49 43 36 29 17 
15 16 17 18 18 19 20 20 20 20 19 17 16 15 15 15 18 22 37 73 127 180 216 231 235 234 231 226 221 215 206 187 154 139 129 115 74 60 73 90 106 141 192 219 213 195 179 173 172 172 172 171 167 149 115 80 67 79 86 69 61 75 102 101 93 102 126 145 153 155 158 158 158 159 159 158 156 155 154 152 150 148 146 144 145 150 156 158 154 144 131 114 97 82 71 62 56 49 43 36 30 17 
15 16 17 18 18 19 20 20 21 20 20 18 17 17 17 18 21 27 50 99 160 209 230 236 235 234 230 225 221 216 208 191 159 133 116 101 78 71 82 93 111 151 204 229 219 198 181 174 174 174 175 173 167 142 102 72 72 94 99 74 61 73 103 109 107 117 138 153 158 159 161 161 161 161 161 160 159 158 157 155 153 151 149 146 144 146 152 156 154 145 132 115 98 82 71 62 56 50 43 36 30 18 
15 16 17 17 18 19 20 20 21 21 20 20 19 19 19 20 23 33 65 122 183 222 235 237 236 233 228 226 224 220 210 195 171 145 125 109 95 88 91 95 116 160 212 231 219 198 182 174 173 175 177 175 160 129 92 70 75 94 99 78 68 78 103 114 120 135 150 158 161 163 163 163 163 163 162 162 161 160 159 157 155 154 152 149 145 144 148 153 154 146 132 115 98 83 71 62 56 50 44 37 30 18 
15 16 16 17 18 18 19 20 20 21 21 21 20 20 20 21 25 39 78 139 196 228 237 238 235 231 228 227 226 221 210 197 180 162 146 135 127 122 116 112 132 174 218 231 216 195 180 173 172 175 178 174 152 121 91 80 85 96 104 98 95 102 116 129 138 150 157 162 164 165 166 165 165 164 164 163 163 161 160 158 157 155 153 151 147 144 146 149 150 145 132 116 99 83 71 62 56 50 44 37 30 18 
15 16 16 17 17 18 19 19 20 20 21 21 21 21 21 22 26 45 91 153 205 231 237 238 235 230 228 229 229 222 211 198 187 178 170 162 154 147 141 140 159 194 225 227 209 189 177 172 173 176 178 173 151 126 107 103 106 113 119 123 126 133 140 148 154 160 162 165 166 167 167 167 166 165 165 165 164 163 161 159 158 156 154 152 149 145 142 144 146 143 132 116 99 83 71 62 56 50 44 37 30 18 
15 15 16 17 17 17 18 19 19 20 21 21 21 22 22 23 29 52 101 163 210 232 237 238 234 230 229 230 230 223 212 201 192 186 182 179 175 172 169 173 190 214 229 222 200 181 173 172 174 176 176 172 158 144 135 135 136 140 143 148 152 156 159 162 163 164 166 167 168 168 168 167 166 165 165 164 164 163 162 161 159 156 154 152 150 146 141 140 141 140 132 117 99 83 71 62 56 49 43 37 30 18 
15 15 16 16 17 17 18 18 19 19 20 20 21 21 22 24 31 56 107 167 213 233 238 238 234 231 231 232 230 223 214 204 198 193 190 186 182 182 186 195 211 226 228 214 192 175 170 172 173 174 174 171 167 163 161 160 160 162 163 164 166 166 167 167 167 167 168 169 169 168 167 166 164 163 163 163 163 163 163 162 160 157 155 154 151 147 140 137 137 138 131 117 99 83 71 62 56 49 43 37 30 18 
15 15 16 16 17 17 18 18 19 19 20 20 20 21 22 24 31 56 105 165 211 233 239 238 234 232 232 232 230 224 216 209 205 201 196 191 189 193 200 210 221 228 223 204 182 169 167 170 172 172 172 171 172 172 174 172 171 170 170 169 170 168 169 168 168 168 168 169 169 168 167 165 163 162 161 161 161 162 162 161 160 158 156 155 152 147 141 137 136 136 131 117 100 84 71 62 55 49 43 36 30 18 
14 14 15 16 17 17 18 18 19 19 19 20 20 21 23 24 30 52 100 161 209 232 239 239 236 234 233 232 230 224 218 213 211 209 205 199 198 203 210 216 225 224 211 186 167 160 161 164 166 168 169 171 174 175 177 177 176 174 173 171 170 169 169 168 168 168 168 168 168 168 167 166 165 163 162 160 160 160 160 160 159 158 156 154 151 147 142 137 136 136 131 118 100 84 71 62 55 49 43 36 30 17 
14 15 15 16 16 17 17 18 19 19 20 20 20 21 22 24 28 49 96 157 206 231 239 239 237 235 233 231 228 224 220 216 217 215 210 205 205 210 213 216 222 216 195 165 148 145 148 152 157 164 169 172 175 177 178 179 178 176 173 171 170 169 168 167 167 167 167 167 167 166 167 166 166 165 163 161 160 159 159 159 159 157 155 153 150 147 143 138 136 135 131 118 101 84 71 61 54 49 43 36 29 17 
16 16 15 16 16 17 17 18 18 19 19 20 21 22 23 25 29 49 93 153 203 229 238 239 237 234 230 227 224 221 220 221 222 220 216 212 212 212 209 208 211 200 176 147 134 132 134 138 144 153 162 170 175 178 179 180 179 176 174 172 171 169 167 166 165 165 165 165 164 164 164 166 167 166 165 163 161 159 158 158 158 156 154 152 150 148 144 139 136 134 130 118 101 84 71 61 54 49 43 36 29 17 
17 17 17 17 17 17 17 18 19 19 20 20 21 22 24 26 31 49 88 141 189 221 235 239 237 232 226 220 216 214 217 221 224 223 219 217 217 214 206 197 188 169 149 130 124 117 111 111 121 137 153 167 175 178 180 180 179 177 175 173 171 169 166 164 162 162 162 162 162 162 163 164 166 166 165 164 162 161 159 158 157 156 154 153 152 149 145 139 136 133 129 118 102 85 71 61 54 49 43 36 29 17 
16 16 17 18 19 19 19 19 19 19 19 19 20 22 24 27 31 44 72 115 163 203 229 238 237 230 222 214 208 205 209 217 224 227 225 223 220 215 205 189 170 143 129 120 121 106 93 92 108 131 152 168 177 180 181 180 179 177 176 174 172 169 166 162 158 155 154 155 156 157 159 161 162 163 164 163 163 162 160 159 158 156 156 155 153 151 147 141 136 132 128 117 102 85 71 61 54 49 43 36 29 17 
14 15 17 18 20 20 21 20 20 20 20 20 20 21 23 26 29 37 54 88 139 190 225 238 236 228 218 208 200 196 199 212 224 230 228 224 220 213 202 185 163 136 122 113 112 96 87 92 114 139 158 170 175 178 178 178 178 178 177 175 172 170 166 161 155 150 146 147 149 152 154 157 158 159 160 161 162 161 161 159 158 157 157 156 155 152 149 143 138 132 127 117 102 86 72 61 54 49 43 36 29 17 
14 14 15 17 19 20 21 22 22 22 22 22 22 22 22 24 26 30 43 76 130 186 224 237 235 226 214 203 193 189 195 211 224 229 225 221 215 206 195 180 165 146 129 111 101 93 99 115 138 156 167 172 174 175 176 175 176 177 177 176 174 171 167 160 152 142 137 136 138 142 145 149 152 155 157 159 160 160 159 158 158 157 157 156 155 154 151 146 140 133 126 116 102 86 72 62 55 49 43 36 29 17 
14 14 14 16 17 19 20 21 22 23 24 24 25 25 26 28 30 35 50 86 141 195 228 238 235 226 212 199 188 186 195 213 225 226 221 216 209 198 185 172 162 152 136 111 92 93 113 138 155 163 166 167 167 168 168 169 171 173 175 175 175 172 167 159 150 141 136 134 135 136 139 143 147 151 154 157 158 158 157 156 156 156 156 156 156 155 152 148 141 134 126 115 101 85 72 62 55 49 43 36 29 17 
14 14 14 15 16 17 18 20 21 22 23 24 25 25 26 27 31 39 58 98 152 202 230 239 235 227 212 197 185 184 198 215 225 222 216 210 203 191 177 165 155 147 133 111 93 95 116 139 153 160 162 164 164 165 165 166 167 169 171 173 173 171 166 157 148 140 137 136 136 137 139 141 145 149 153 156 157 157 156 156 156 156 156 156 156 155 153 149 143 135 126 114 101 86 72 62 54 48 42 35 29 17 
13 14 14 15 16 17 18 18 19 19 20 21 23 24 26 28 33 43 66 109 164 209 234 240 237 229 216 200 186 183 194 211 221 219 213 205 196 183 171 158 148 139 128 110 95 96 113 132 143 151 155 156 157 159 160 161 163 166 169 171 172 169 163 153 146 141 140 140 140 140 141 142 145 148 151 154 155 155 155 155 156 156 156 156 155 154 153 150 145 137 127 116 102 86 73 62 55 48 42 35 29 17 
14 14 15 16 17 17 18 18 18 18 18 19 20 22 24 28 35 50 81 128 179 218 236 241 238 231 218 202 187 181 186 200 211 215 211 201 190 179 168 156 145 132 119 102 90 91 104 120 132 141 146 148 149 152 154 156 158 160 163 165 166 165 159 150 143 139 138 138 138 138 140 142 145 148 151 153 154 155 155 155 156 156 156 155 154 153 153 151 146 139 130 119 105 90 75 64 55 48 42 35 29 17 
13 13 14 15 16 17 18 18 19 19 20 22 23 25 28 33 43 67 107 157 201 228 238 239 236 229 218 204 189 179 177 183 195 206 210 203 190 178 168 157 144 127 111 94 83 84 94 108 121 131 137 139 139 142 147 151 154 158 160 162 161 158 152 145 139 137 135 134 133 134 137 140 144 147 150 152 153 154 153 154 155 156 156 155 154 154 152 151 147 142 134 124 112 96 81 67 57 49 42 35 29 17 
13 14 15 16 17 18 19 20 21 22 23 24 25 26 28 35 50 83 131 181 217 234 239 237 233 226 216 204 190 178 169 168 177 193 206 208 200 189 179 164 147 126 109 95 86 84 88 98 109 119 126 129 131 135 141 146 149 152 155 156 155 153 148 141 136 133 132 131 131 131 133 137 140 144 147 150 152 153 153 153 154 155 156 155 155 154 153 151 148 144 137 130 120 106 90 74 61 50 42 35 29 17 
14 15 16 17 18 20 20 21 22 23 23 23 23 24 28 36 56 93 144 192 223 236 239 236 232 225 215 203 190 177 165 159 164 178 195 206 209 205 196 178 156 134 119 105 96 91 90 94 101 108 114 118 123 129 135 141 145 149 151 151 149 146 141 137 134 133 133 134 134 135 136 137 139 142 145 147 149 151 152 153 154 155 155 155 155 154 153 151 149 145 139 133 126 115 100 83 66 53 43 36 29 17 
15 16 16 17 18 19 20 21 21 21 20 20 21 23 29 40 63 103 153 197 224 236 238 236 231 224 214 200 186 174 164 157 158 166 179 191 203 211 210 195 175 154 138 123 110 102 99 100 102 105 108 112 116 123 129 133 137 142 145 145 144 142 139 136 133 132 132 134 136 137 138 140 142 144 145 147 148 150 151 153 154 154 155 154 154 154 153 152 149 145 141 136 131 123 110 93 74 58 45 36 29 17 
15 16 16 17 18 19 19 19 20 20 20 20 21 24 30 44 72 115 165 205 228 237 238 236 231 223 211 196 183 172 165 160 158 160 164 170 183 201 213 211 197 180 163 143 124 113 111 111 112 112 113 115 118 122 125 128 132 136 139 139 138 138 137 135 133 133 134 136 138 140 142 145 146 147 148 149 150 151 152 153 153 153 153 153 153 153 153 151 149 146 142 138 134 129 119 103 84 65 49 37 29 17 
15 15 16 17 17 17 18 18 19 19 19 20 23 28 38 56 89 135 182 216 233 238 237 234 228 219 208 195 184 176 170 165 162 159 156 155 161 180 201 213 212 202 187 165 142 128 123 123 124 124 124 125 127 128 129 129 131 133 135 137 137 137 135 135 134 134 134 136 138 140 142 145 148 150 151 151 151 151 151 151 152 152 152 152 152 152 152 150 149 146 143 139 137 133 126 113 96 76 56 41 31 17 
14 15 16 17 18 19 19 19 20 20 21 23 28 38 53 79 116 162 200 226 236 237 235 232 227 219 209 199 189 181 174 169 165 160 154 149 150 162 182 200 211 214 207 189 164 144 136 134 134 133 133 133 134 133 132 131 131 131 132 134 135 134 133 133 134 135 137 138 140 141 142 144 146 149 150 151 151 151 151 151 151 151 151 152 151 151 150 149 148 146 143 140 138 135 130 121 106 87 66 47 34 19 
13 14 15 16 17 18 18 18 18 20 22 27 35 51 75 110 150 189 217 232 236 236 233 230 225 219 212 203 193 185 179 174 168 161 155 150 147 151 161 176 192 209 217 208 183 159 147 145 145 141 138 136 134 133 132 132 131 129 128 130 131 130 130 131 133 136 138 140 141 142 143 145 146 148 149 150 150 150 150 150 151 151 151 151 150 150 149 148 147 145 143 140 139 136 133 126 114 96 76 55 39 21 
12 12 13 14 15 16 16 17 18 22 26 31 40 59 92 133 174 206 225 234 236 234 232 229 226 221 214 205 195 187 181 174 167 161 156 151 147 146 147 152 166 191 212 215 195 171 158 155 153 148 142 137 132 129 128 127 126 125 123 123 124 125 127 129 132 134 137 140 141 143 144 145 147 148 149 150 150 150 149 150 150 150 150 149 149 148 148 148 147 145 142 140 139 137 133 128 119 104 85 64 45 23 
11 12 12 12 13 13 14 16 19 23 25 30 39 62 99 143 183 210 225 233 235 234 231 229 226 221 214 204 195 187 180 172 166 161 156 152 148 144 141 139 147 167 191 202 193 176 164 159 155 149 142 135 129 124 122 121 121 120 119 119 120 122 125 129 132 134 136 139 142 143 143 144 146 148 149 150 149 149 148 148 149 149 149 148 148 147 147 147 146 144 142 140 138 137 134 129 122 110 94 73 52 27 
11 11 12 12 12 13 15 18 20 22 22 28 40 64 99 140 177 204 221 231 235 234 231 227 223 217 210 202 194 186 179 171 165 162 157 153 150 146 142 138 139 149 164 174 174 166 158 153 149 144 137 130 125 120 117 116 116 117 118 119 120 122 125 129 133 135 136 139 141 142 142 142 144 146 148 149 149 148 147 147 147 147 147 147 147 147 146 146 145 143 141 139 138 136 133 129 123 114 100 80 59 31 
11 11 11 12 13 15 17 19 20 20 21 28 42 65 95 132 169 198 218 230 234 233 229 224 219 214 207 200 193 186 178 172 167 164 160 156 153 150 146 142 140 141 145 149 149 146 142 140 138 134 128 124 120 116 113 112 114 117 120 122 124 125 126 128 132 135 137 138 139 140 141 141 142 143 145 147 147 147 147 146 146 146 145 145 145 145 145 144 143 142 141 139 138 136 133 129 124 116 104 85 64 34 
10 10 11 13 16 18 19 20 18 18 21 29 41 60 90 127 165 196 217 229 233 231 227 223 218 213 207 200 194 187 180 175 171 167 164 160 157 154 151 147 144 141 139 137 134 130 127 126 126 124 121 118 117 114 113 113 116 119 122 125 127 128 128 129 131 135 138 139 140 140 141 141 141 142 143 144 145 145 146 145 145 144 143 142 142 142 142 142 142 142 141 139 138 136 133 129 125 118 107 89 68 37 
10 11 13 16 17 18 18 17 17 18 22 27 37 57 89 129 167 199 220 229 231 229 226 223 219 215 210 203 196 189 183 178 174 171 167 164 161 158 155 151 149 145 141 137 132 128 124 121 121 120 119 117 116 116 116 117 120 122 124 126 128 130 131 131 134 136 139 140 140 140 140 140 140 140 141 142 143 143 144 144 143 142 142 141 140 140 140 141 141 140 140 139 137 135 132 129 125 120 110 94 75 42 
11 12 15 16 17 16 15 15 16 20 22 27 37 62 98 139 175 204 221 228 228 227 225 224 222 219 213 206 199 192 187 182 178 174 170 167 164 161 158 155 152 149 145 141 137 132 127 123 123 123 122 120 119 120 122 125 128 128 128 128 128 128 130 133 136 139 141 142 142 141 140 139 139 139 140 140 140 141 141 142 142 141 141 140 139 139 139 139 139 139 138 137 136 133 131 128 125 120 113 99 82 48 
12 13 14 14 14 13 13 15 18 22 25 31 45 73 108 147 180 206 220 226 227 227 227 227 226 224 218 211 204 197 191 185 180 175 172 169 166 163 161 158 155 152 148 144 141 137 133 129 127 127 127 125 124 124 126 129 131 133 133 133 131 130 130 132 135 139 140 141 142 142 141 140 139 139 139 139 140 140 140 140 140 140 140 139 139 139 139 139 139 138 137 136 134 132 130 127 125 120 114 103 89 53 
12 12 12 11 12 12 13 17 20 24 26 33 48 76 114 152 184 205 217 223 226 229 230 231 230 228 223 217 211 204 197 190 184 178 174 170 167 165 162 159 156 154 151 148 145 142 138 133 131 131 132 131 129 127 126 127 128 131 134 135 136 135 135 136 138 141 143 144 144 144 143 142 140 139 139 138 138 138 138 138 138 138 138 138 139 138 138 138 138 138 137 135 134 132 130 127 125 120 115 105 92 56 
10 10 10 10 10 12 14 19 20 21 23 32 50 79 116 152 181 199 210 219 226 231 234 235 233 230 226 222 216 209 202 194 187 181 177 173 170 167 164 161 158 155 153 151 148 144 140 135 132 132 134 135 134 131 128 126 126 129 133 135 136 136 136 136 137 141 143 145 145 145 144 142 141 139 138 138 138 138 137 137 136 137 137 137 137 137 137 137 137 137 136 135 133 131 129 126 124 120 116 107 96 59 
8 9 10 11 11 13 16 18 19 19 23 35 54 82 114 144 168 186 200 213 224 232 235 235 233 230 226 222 217 210 204 197 190 184 180 177 175 172 168 164 160 157 154 152 149 145 140 136 132 132 135 139 140 139 136 130 128 129 133 135 135 135 135 133 133 136 140 142 143 143 143 141 139 138 137 138 138 137 137 136 135 135 135 135 136 136 135 136 135 135 134 133 132 130 128 125 123 119 116 109 99 62 
8 9 10 10 12 14 16 16 16 20 28 40 56 77 99 121 143 164 186 205 220 229 233 233 230 227 224 220 215 209 203 198 193 189 185 183 180 177 172 167 162 158 156 154 150 146 141 137 134 134 137 143 146 147 145 141 138 139 142 142 139 136 133 129 128 131 136 139 139 140 140 139 138 137 136 136 135 135 135 134 134 133 134 134 134 134 133 133 133 133 132 132 131 129 128 125 123 119 115 108 100 63 
8 8 9 10 12 14 14 14 15 20 28 39 49 60 73 90 113 141 171 197 215 226 229 230 229 226 223 219 215 209 204 201 198 194 191 187 183 179 174 169 163 159 157 155 152 147 143 139 137 138 141 145 148 150 150 148 146 150 155 156 152 146 140 133 129 131 135 138 139 139 139 138 138 137 136 134 132 131 132 132 132 132 133 133 132 132 131 131 131 131 131 131 130 129 127 125 122 118 113 107 99 63 
8 8 8 9 11 12 12 12 14 19 24 28 31 36 48 67 94 127 161 190 210 222 228 230 229 227 223 219 215 210 206 203 200 197 193 189 183 178 174 169 165 162 159 156 153 149 146 144 144 143 143 144 147 150 150 151 149 152 154 153 149 145 143 139 137 137 140 141 141 139 137 137 136 136 135 133 131 129 130 131 132 132 132 132 132 132 131 131 131 130 130 129 128 127 126 123 121 116 112 106 98 62 
8 7 8 9 10 10 11 11 12 15 18 19 21 28 41 60 87 120 154 183 205 220 228 232 231 228 224 220 215 211 207 204 201 197 193 187 181 176 172 169 167 166 163 159 154 150 147 147 148 147 147 146 148 149 149 148 144 142 139 135 132 133 138 142 140 138 138 138 137 135 134 134 133 134 134 133 131 129 129 130 131 131 131 131 132 132 131 131 131 130 129 128 126 125 123 121 119 115 111 106 99 63 
7 7 8 8 9 10 10 10 11 14 16 17 21 30 44 63 87 117 148 179 203 220 229 233 232 229 225 220 215 211 206 202 199 194 190 184 179 174 169 168 167 168 165 161 155 150 148 150 153 155 154 154 154 152 149 145 138 131 122 115 113 120 132 140 140 136 134 134 134 133 131 131 130 131 132 132 131 128 127 128 129 130 130 131 131 131 131 131 131 130 128 126 125 123 121 118 116 113 110 106 101 65 
7 7 7 8 9 9 10 10 11 13 14 18 23 33 46 62 84 113 146 179 205 222 230 232 232 229 226 222 217 212 206 201 197 192 188 182 177 171 167 165 164 166 164 159 153 149 149 152 157 159 159 158 156 151 146 142 136 127 117 107 106 114 127 134 134 131 131 132 132 131 130 130 130 130 130 129 127 124 123 125 126 127 128 130 130 130 130 130 129 128 126 125 123 121 119 116 114 112 109 106 102 66 
4 4 5 5 5 6 6 6 7 8 9 12 16 23 31 41 55 75 98 121 139 150 154 155 154 153 151 149 145 142 138 134 131 128 125 121 117 113 110 108 108 108 107 105 101 99 100 103 107 109 108 106 104 101 97 95 91 87 80 73 72 77 83 87 86 86 87 89 89 89 88 87 87 86 86 85 83 81 80 81 83 84 85 86 86 86 86 86 85 84 83 82 81 80 78 77 75 74 72 70 68 44 
